<svg id="Icon_ionic-ios-notifications-outline" data-name="Icon ionic-ios-notifications-outline" xmlns="http://www.w3.org/2000/svg" width="17.629" height="22.066" viewBox="0 0 17.629 22.066">
  <path id="Trazado_74" data-name="Trazado 74" d="M19.147,28.336a.714.714,0,0,0-.7.563,1.382,1.382,0,0,1-.276.6,1.042,1.042,0,0,1-.888.325A1.06,1.06,0,0,1,16.4,29.5a1.382,1.382,0,0,1-.276-.6.714.714,0,0,0-.7-.563h0a.719.719,0,0,0-.7.877,2.464,2.464,0,0,0,2.565,2.046,2.46,2.46,0,0,0,2.565-2.046.722.722,0,0,0-.7-.877Z" transform="translate(-8.484 -9.193)" fill="#fffaf3"/>
  <path id="Trazado_75" data-name="Trazado 75" d="M24.183,20.272c-.849-1.12-2.52-1.776-2.52-6.789,0-5.146-2.272-7.214-4.39-7.71-.2-.05-.342-.116-.342-.325v-.16A1.353,1.353,0,0,0,15.607,3.93h-.033A1.353,1.353,0,0,0,14.25,5.287v.16c0,.2-.143.276-.342.325-2.123.5-4.39,2.565-4.39,7.71,0,5.013-1.671,5.664-2.52,6.789a1.1,1.1,0,0,0,.877,1.754H23.323A1.1,1.1,0,0,0,24.183,20.272Zm-2.151.32H9.171a.242.242,0,0,1-.182-.4,6.681,6.681,0,0,0,1.158-1.842,12.5,12.5,0,0,0,.789-4.864A8.458,8.458,0,0,1,12.088,8.7a3.539,3.539,0,0,1,2.134-1.522,1.933,1.933,0,0,0,1.026-.579.436.436,0,0,1,.656-.011,2,2,0,0,0,1.037.59A3.539,3.539,0,0,1,19.076,8.7a8.458,8.458,0,0,1,1.153,4.787,12.5,12.5,0,0,0,.789,4.864,6.758,6.758,0,0,0,1.186,1.87A.228.228,0,0,1,22.032,20.592Z" transform="translate(-6.775 -3.93)" fill="#fff"/>
</svg>
